<svg version="1.1" viewBox="0.0 0.0 1500.0 500.0" fill="none" stroke="none" stroke-linecap="square" stroke-miterlimit="10" xmlns:xlink="http://www.w3.org/1999/xlink" xmlns="http://www.w3.org/2000/svg"><clipPath id="p.0"><path d="m0 0l1500.0 0l0 500.0l-1500.0 0l0 -500.0z" clip-rule="nonzero"/></clipPath><g clip-path="url(#p.0)"><path fill="#438fe4" d="m0 0l1500.0 0l0 500.0l-1500.0 0z" fill-rule="evenodd"/><path fill="#000000" fill-opacity="0.0" d="m0.005249344 100.24672l1500.0 0l0 151.90552l-1500.0 0z" fill-rule="evenodd"/><path fill="#ffffff" d="m430.7052 215.51921q-8.515625 0 -12.734375 -3.328125q-4.203125 -3.34375 -4.203125 -8.59375q0 -3.28125 2.078125 -5.671875q2.078125 -2.40625 5.90625 -2.40625q3.171875 0 5.25 1.96875q2.078125 1.953125 2.078125 5.015625q0 2.1875 -0.875 3.71875q-0.875 1.53125 -2.078125 2.078125l0 0.4375q0.875 0.328125 2.015625 0.4375q1.15625 0.109375 2.359375 0.109375q4.46875 0 6.703125 -2.734375q2.25 -2.734375 2.25 -8.96875l0 -53.125l-10.375 0l0 -6.5625l33.453125 0l0 6.5625l-7.765625 0l0 48.875q0 10.15625 -5.6875 16.171875q-5.6875 6.015625 -18.375 6.015625zm54.664124 -67.453125q-4.03125 0 -6.28125 -2.296875q-2.234375 -2.296875 -2.234375 -6.015625l0 -0.546875q0 -3.71875 2.234375 -6.015625q2.25 -2.296875 6.28125 -2.296875q4.046875 0 6.28125 2.296875q2.25 2.296875 2.25 6.015625l0 0.546875q0 3.71875 -2.25 6.015625q-2.234375 2.296875 -6.28125 2.296875zm-14.09375 59.578125l7.0 0l0 -40.5625l-7.0 -1.421875l0 -5.46875l21.3125 -4.359375l0 51.8125l7.0 0l0 6.5625l-28.3125 0l0 -6.5625zm34.875153 21.875l7.0000305 0l0 -62.4375l-7.0000305 -1.421875l0 -5.46875l21.31253 -4.359375l0 9.828125l0.546875 0q1.640625 -3.9375 5.515625 -6.875q3.890625 -2.953125 10.015625 -2.953125q5.25 0 9.453125 2.078125q4.21875 2.0625 7.21875 5.953125q3.0 3.875 4.578125 9.40625q1.59375 5.515625 1.59375 12.40625q0 6.890625 -1.59375 12.40625q-1.578125 5.515625 -4.578125 9.40625q-3.0 3.875 -7.21875 5.953125q-4.203125 2.078125 -9.453125 2.078125q-6.234375 0 -10.0625 -2.953125q-3.828125 -2.953125 -5.46875 -6.78125l-0.546875 0l0 23.734375l9.1875 0l0 6.546875l-30.50003 0l0 -6.546875zm32.68753 -22.96875q5.46875 0 8.859375 -3.71875q3.390625 -3.71875 3.390625 -10.484375l0 -13.34375q0 -6.78125 -3.390625 -10.5q-3.390625 -3.71875 -8.859375 -3.71875q-4.59375 0 -7.984375 2.796875q-3.390625 2.78125 -3.390625 7.59375l0 20.984375q0 4.8125 3.390625 7.609375q3.390625 2.78125 7.984375 2.78125zm75.97534 8.96875q-8.515625 0 -12.734375 -3.328125q-4.203125 -3.34375 -4.203125 -8.59375q0 -3.28125 2.078125 -5.671875q2.078125 -2.40625 5.90625 -2.40625q3.171875 0 5.25 1.96875q2.078125 1.953125 2.078125 5.015625q0 2.1875 -0.875 3.71875q-0.875 1.53125 -2.078125 2.078125l0 0.4375q0.875 0.328125 2.015625 0.4375q1.15625 0.109375 2.359375 0.109375q4.46875 0 6.703125 -2.734375q2.25 -2.734375 2.25 -8.96875l0 -53.125l-10.375 0l0 -6.5625l33.453125 0l0 6.5625l-7.765625 0l0 48.875q0 10.15625 -5.6875 16.171875q-5.6875 6.015625 -18.375 6.015625zm45.82245 0q-4.265625 0 -6.625 -2.515625q-2.34375 -2.515625 -2.34375 -6.125l0 -0.546875q0 -3.609375 2.34375 -6.125q2.359375 -2.515625 6.625 -2.515625q4.25 0 6.59375 2.515625q2.359375 2.515625 2.359375 6.125l0 0.546875q0 3.609375 -2.359375 6.125q-2.34375 2.515625 -6.59375 2.515625zm45.476013 -7.875l7.765625 0l0 -63.1875l-7.765625 0l0 -6.5625l34.546875 0q7.765625 0 14.3125 2.515625q6.5625 2.515625 11.375 7.328125q4.8125 4.8125 7.484375 11.921875q2.6875 7.09375 2.6875 16.390625q0 9.296875 -2.6875 16.40625q-2.671875 7.09375 -7.484375 11.96875q-4.8125 4.859375 -11.375 7.328125q-6.546875 2.453125 -14.3125 2.453125l-34.546875 0l0 -6.5625zm23.0625 -0.546875l8.96875 0q11.15625 0 16.34375 -5.296875q5.1875 -5.3125 5.1875 -16.671875l0 -18.15625q0 -11.359375 -5.1875 -16.65625q-5.1875 -5.3125 -16.34375 -5.3125l-8.96875 0l0 62.09375zm84.730835 8.421875q-6.5625 0 -11.640625 -2.1875q-5.078125 -2.1875 -8.578125 -6.171875q-3.5 -4.0 -5.3125 -9.515625q-1.796875 -5.515625 -1.796875 -12.078125q0 -6.78125 1.90625 -12.296875q1.921875 -5.53125 5.421875 -9.40625q3.5 -3.890625 8.359375 -5.953125q4.859375 -2.078125 10.765625 -2.078125q5.90625 0 10.65625 1.90625q4.765625 1.90625 8.09375 5.40625q3.34375 3.5 5.140625 8.375q1.796875 4.859375 1.796875 10.875l0 3.390625l-36.734375 0l0 3.9375q0 7.859375 4.09375 12.078125q4.109375 4.203125 10.78125 4.203125q6.125 0 9.84375 -2.734375q3.71875 -2.734375 5.46875 -6.78125l5.34375 3.28125q-0.96875 2.734375 -2.890625 5.53125q-1.90625 2.78125 -4.8125 5.078125q-2.890625 2.296875 -6.828125 3.71875q-3.9375 1.421875 -9.078125 1.421875zm-11.921875 -36.078125l21.875 0l0 -1.421875q0 -7.875 -2.796875 -11.59375q-2.78125 -3.71875 -8.03125 -3.71875q-5.25 0 -8.15625 3.671875q-2.890625 3.65625 -2.890625 11.53125l0 1.53125zm44.177002 28.203125l7.0 0l0 -65.265625l-7.0 -1.421875l0 -5.46875l21.3125 -4.375l0 55.21875l0.546875 0l7.4375 -8.53125l13.234375 -14.109375l-6.890625 0l0 -6.546875l24.375 0l0 6.546875l-7.765625 0l-13.546875 13.671875l18.90625 30.28125l5.25 0l0 6.5625l-26.890625 0l0 -6.5625l5.46875 0l-12.359375 -21.421875l-7.765625 8.203125l0 13.21875l6.671875 0l0 6.5625l-27.984375 0l0 -6.5625zm66.69006 0l7.0 0l0 -65.265625l-7.0 -1.421875l0 -5.46875l21.3125 -4.375l0 55.21875l0.546875 0l7.4375 -8.53125l13.234375 -14.109375l-6.890625 0l0 -6.546875l24.375 0l0 6.546875l-7.765625 0l-13.546875 13.671875l18.90625 30.28125l5.25 0l0 6.5625l-26.890625 0l0 -6.5625l5.46875 0l-12.359375 -21.421875l-7.765625 8.203125l0 13.21875l6.671875 0l0 6.5625l-27.984375 0l0 -6.5625zm93.472046 7.875q-6.5625 0 -11.640625 -2.1875q-5.078125 -2.1875 -8.578125 -6.171875q-3.5 -4.0 -5.3125 -9.515625q-1.796875 -5.515625 -1.796875 -12.078125q0 -6.78125 1.90625 -12.296875q1.921875 -5.53125 5.421875 -9.40625q3.5 -3.890625 8.359375 -5.953125q4.859375 -2.078125 10.765625 -2.078125q5.90625 0 10.65625 1.90625q4.765625 1.90625 8.09375 5.40625q3.34375 3.5 5.140625 8.375q1.796875 4.859375 1.796875 10.875l0 3.390625l-36.734375 0l0 3.9375q0 7.859375 4.09375 12.078125q4.109375 4.203125 10.78125 4.203125q6.125 0 9.84375 -2.734375q3.71875 -2.734375 5.46875 -6.78125l5.34375 3.28125q-0.96875 2.734375 -2.890625 5.53125q-1.90625 2.78125 -4.8125 5.078125q-2.890625 2.296875 -6.828125 3.71875q-3.9375 1.421875 -9.078125 1.421875zm-11.921875 -36.078125l21.875 0l0 -1.421875q0 -7.875 -2.796875 -11.59375q-2.78125 -3.71875 -8.03125 -3.71875q-5.25 0 -8.15625 3.671875q-2.890625 3.65625 -2.890625 11.53125l0 1.53125zm45.489502 28.203125l7.0 0l0 -40.5625l-7.0 -1.421875l0 -5.46875l21.09375 -4.359375l0 10.59375l0.546875 0q0.765625 -2.078125 1.96875 -3.984375q1.203125 -1.921875 2.890625 -3.390625q1.703125 -1.46875 3.890625 -2.34375q2.1875 -0.875 4.921875 -0.875q5.25 0 8.25 2.734375q3.015625 2.71875 3.015625 7.53125q0 4.15625 -2.078125 6.453125q-2.078125 2.296875 -5.796875 2.296875q-3.71875 0 -5.6875 -1.96875q-1.96875 -1.96875 -1.96875 -4.8125q0 -1.53125 0.65625 -2.734375q0.65625 -1.203125 1.53125 -1.53125l0 -0.4375q-0.4375 -0.109375 -1.53125 -0.109375q-1.859375 0 -3.71875 1.046875q-1.859375 1.03125 -3.34375 2.625q-1.46875 1.578125 -2.40625 3.546875q-0.921875 1.96875 -0.921875 3.9375l0 33.234375l9.1875 0l0 6.5625l-30.5 0l0 -6.5625z" fill-rule="nonzero"/><path fill="#000000" fill-opacity="0.0" d="m0.005249344 241.979l1500.0 0l0 77.5748l-1500.0 0z" fill-rule="evenodd"/><path fill="#ffffff" d="m228.88818 297.059l-6.0 0l0 -33.5l13.875 0q4.421875 0 6.703125 2.6875q2.28125 2.6875 2.28125 7.484375q0 3.796875 -1.453125 6.265625q-1.4375 2.46875 -4.21875 3.375l6.09375 13.6875l-6.484375 0l-5.515625 -13.203125l-5.28125 0l0 13.203125zm7.25 -18.1875q1.53125 0 2.421875 -0.8125q0.890625 -0.828125 0.890625 -2.75l0 -2.96875q0 -1.921875 -0.890625 -2.734375q-0.890625 -0.8125 -2.421875 -0.8125l-7.25 0l0 10.078125l7.25 0zm24.291046 18.765625q-2.453125 0 -4.5 -0.796875q-2.03125 -0.796875 -3.46875 -2.390625q-1.4375 -1.609375 -2.234375 -4.078125q-0.796875 -2.484375 -0.796875 -5.84375q0 -6.765625 2.71875 -9.921875q2.71875 -3.171875 7.75 -3.171875q5.046875 0 7.75 3.171875q2.71875 3.15625 2.71875 9.921875l0 1.390625l-14.828125 0l0 1.640625q0 2.484375 1.390625 3.9375q1.390625 1.4375 3.828125 1.4375q2.078125 0 3.484375 -0.890625q1.421875 -0.890625 2.421875 -2.5625l3.171875 3.3125q-1.390625 2.203125 -3.75 3.53125q-2.34375 1.3125 -5.65625 1.3125zm-0.53125 -21.75q-4.359375 0 -4.359375 5.1875l0 1.25l8.734375 0l0 -1.25q0 -5.1875 -4.375 -5.1875zm22.896301 21.75q-3.125 0 -5.484375 -1.125q-2.34375 -1.140625 -4.109375 -3.390625l3.546875 -3.453125q1.203125 1.671875 2.6875 2.546875q1.484375 0.859375 3.453125 0.859375q3.65625 0 3.65625 -3.078125q0 -1.1875 -0.609375 -1.875q-0.59375 -0.703125 -2.03125 -0.953125l-2.359375 -0.421875q-3.9375 -0.734375 -5.71875 -2.453125q-1.765625 -1.734375 -1.765625 -5.046875q0 -3.9375 2.296875 -5.875q2.3125 -1.9375 6.53125 -1.9375q2.9375 0 5.0625 0.953125q2.140625 0.953125 3.71875 2.828125l-3.40625 3.40625q-0.953125 -1.1875 -2.328125 -1.90625q-1.359375 -0.734375 -3.046875 -0.734375q-3.359375 0 -3.359375 3.03125q0 1.25 0.671875 1.90625q0.671875 0.640625 2.109375 0.875l2.40625 0.4375q3.9375 0.71875 5.640625 2.421875q1.703125 1.703125 1.703125 4.78125q0 3.875 -2.40625 6.046875q-2.390625 2.15625 -6.859375 2.15625zm23.427032 0q-2.453125 0 -4.5 -0.796875q-2.03125 -0.796875 -3.46875 -2.390625q-1.4375 -1.609375 -2.234375 -4.078125q-0.796875 -2.484375 -0.796875 -5.84375q0 -6.765625 2.71875 -9.921875q2.71875 -3.171875 7.75 -3.171875q5.046875 0 7.75 3.171875q2.71875 3.15625 2.71875 9.921875l0 1.390625l-14.828125 0l0 1.640625q0 2.484375 1.390625 3.9375q1.390625 1.4375 3.828125 1.4375q2.078125 0 3.484375 -0.890625q1.421875 -0.890625 2.421875 -2.5625l3.171875 3.3125q-1.390625 2.203125 -3.75 3.53125q-2.34375 1.3125 -5.65625 1.3125zm-0.53125 -21.75q-4.359375 0 -4.359375 5.1875l0 1.25l8.734375 0l0 -1.25q0 -5.1875 -4.375 -5.1875zm31.630676 21.171875q-3.890625 0 -4.078125 -4.265625l-0.578125 0q-0.46875 2.296875 -2.15625 3.578125q-1.6875 1.265625 -4.171875 1.265625q-3.453125 0 -5.1875 -1.921875q-1.734375 -1.921875 -1.734375 -5.375q0 -3.9375 2.453125 -5.859375q2.453125 -1.921875 7.0625 -1.921875l3.875 0l0 -2.15625q0 -2.203125 -0.9375 -3.25q-0.921875 -1.0625 -3.09375 -1.0625q-1.765625 0 -2.96875 0.84375q-1.203125 0.828125 -2.109375 2.359375l-3.40625 -3.0625q1.390625 -2.15625 3.515625 -3.46875q2.140625 -1.328125 5.453125 -1.328125q9.359375 0 9.359375 8.828125l0 12.140625l2.203125 0l0 4.65625l-3.5 0zm-8.78125 -3.703125q1.78125 0 3.015625 -1.03125q1.25 -1.03125 1.25 -2.84375l0 -3.3125l-3.5 0q-4.03125 0 -4.03125 3.109375l0 1.0625q0 1.578125 0.859375 2.296875q0.875 0.71875 2.40625 0.71875zm16.80481 3.703125l0 -25.0625l5.796875 0l0 5.140625l0.671875 0q0.4375 -2.5 1.796875 -3.8125q1.375 -1.328125 3.59375 -1.328125l1.234375 0l0 5.953125l-1.90625 0q-2.75 0 -4.078125 0.875q-1.3125 0.859375 -1.3125 3.015625l0 15.21875l-5.796875 0zm25.963013 0.578125q-5.09375 0 -7.765625 -3.171875q-2.65625 -3.171875 -2.65625 -9.9375q0 -6.765625 2.65625 -9.921875q2.671875 -3.171875 7.765625 -3.171875q3.703125 0 5.875 1.6875q2.1875 1.671875 3.15625 4.59375l-4.765625 2.109375q-0.375 -1.828125 -1.359375 -2.75q-0.984375 -0.9375 -2.90625 -0.9375q-4.3125 0 -4.3125 5.171875l0 6.4375q0 5.1875 4.3125 5.1875q2.015625 0 3.0625 -0.953125q1.0625 -0.96875 1.59375 -2.984375l4.515625 2.15625q-2.203125 6.484375 -9.171875 6.484375zm13.397064 -36.09375l5.796875 0l0 14.640625l0.671875 0q1.5 -4.75 6.0 -4.75q3.375 0 5.1875 2.28125q1.828125 2.265625 1.828125 6.5l0 16.84375l-5.8125 0l0 -15.84375q0 -4.890625 -3.640625 -4.890625q-1.78125 0 -3.015625 1.03125q-1.21875 1.03125 -1.21875 2.90625l0 16.796875l-5.796875 0l0 -35.515625zm34.989166 36.09375q-2.453125 0 -4.5 -0.796875q-2.03125 -0.796875 -3.46875 -2.390625q-1.4375 -1.609375 -2.234375 -4.078125q-0.796875 -2.484375 -0.796875 -5.84375q0 -6.765625 2.71875 -9.921875q2.71875 -3.171875 7.75 -3.171875q5.046875 0 7.75 3.171875q2.71875 3.15625 2.71875 9.921875l0 1.390625l-14.828125 0l0 1.640625q0 2.484375 1.390625 3.9375q1.390625 1.4375 3.828125 1.4375q2.078125 0 3.484375 -0.890625q1.421875 -0.890625 2.421875 -2.5625l3.171875 3.3125q-1.390625 2.203125 -3.75 3.53125q-2.34375 1.3125 -5.65625 1.3125zm-0.53125 -21.75q-4.359375 0 -4.359375 5.1875l0 1.25l8.734375 0l0 -1.25q0 -5.1875 -4.375 -5.1875zm15.318176 21.171875l0 -25.0625l5.796875 0l0 5.140625l0.671875 0q0.4375 -2.5 1.796875 -3.8125q1.375 -1.328125 3.59375 -1.328125l1.234375 0l0 5.953125l-1.90625 0q-2.75 0 -4.078125 0.875q-1.3125 0.859375 -1.3125 3.015625l0 15.21875l-5.796875 0z" fill-rule="nonzero"/><path fill="#ffffff" d="m475.3238 283.434l-8.0625 8.015625l-8.015625 -8.015625l8.015625 -8.078125l8.0625 8.078125z" fill-rule="nonzero"/><path fill="#ffffff" d="m489.57672 297.059l0 -33.5l13.875 0q4.421875 0 6.703125 2.734375q2.28125 2.734375 2.28125 7.53125q0 4.796875 -2.28125 7.546875q-2.28125 2.734375 -6.703125 2.734375l-7.875 0l0 12.953125l-6.0 0zm6.0 -18.1875l7.25 0q1.53125 0 2.421875 -0.84375q0.890625 -0.84375 0.890625 -2.71875l0 -2.96875q0 -1.875 -0.890625 -2.703125q-0.890625 -0.84375 -2.421875 -0.84375l-7.25 0l0 10.078125zm21.175964 18.1875l0 -25.0625l5.796875 0l0 5.140625l0.671875 0q0.4375 -2.5 1.796875 -3.8125q1.375 -1.328125 3.59375 -1.328125l1.234375 0l0 5.953125l-1.90625 0q-2.75 0 -4.078125 0.875q-1.3125 0.859375 -1.3125 3.015625l0 15.21875l-5.796875 0zm26.056763 0.578125q-4.984375 0 -7.75 -3.171875q-2.765625 -3.171875 -2.765625 -9.9375q0 -6.765625 2.765625 -9.921875q2.765625 -3.171875 7.75 -3.171875q5.0 0 7.75 3.171875q2.765625 3.15625 2.765625 9.921875q0 6.765625 -2.765625 9.9375q-2.75 3.171875 -7.75 3.171875zm0 -4.703125q4.421875 0 4.421875 -5.1875l0 -6.4375q0 -5.171875 -4.421875 -5.171875q-4.40625 0 -4.40625 5.171875l0 6.4375q0 5.1875 4.40625 5.1875zm35.80365 6.328125q0 1.96875 -0.59375 3.453125q-0.59375 1.5 -1.984375 2.5q-1.390625 1.015625 -3.703125 1.515625q-2.296875 0.5 -5.65625 0.5q-2.984375 0 -5.0 -0.40625q-2.015625 -0.40625 -3.265625 -1.171875q-1.25 -0.765625 -1.78125 -1.875q-0.515625 -1.109375 -0.515625 -2.5q0 -1.921875 1.046875 -3.03125q1.0625 -1.09375 3.03125 -1.375l0 -0.921875q-1.53125 -0.375 -2.28125 -1.421875q-0.75 -1.0625 -0.75 -2.609375q0 -1.53125 1.046875 -2.5625q1.0625 -1.03125 3.09375 -1.421875l0 -0.625q-4.09375 -2.015625 -4.09375 -7.390625q0 -4.078125 2.296875 -6.28125q2.3125 -2.203125 7.171875 -2.203125q2.15625 0 3.921875 0.671875l0 -0.921875q0 -3.40625 3.265625 -3.40625l3.515625 0l0 4.515625l-4.859375 0l0 0.953125q1.78125 0.875 2.6875 2.578125q0.921875 1.703125 0.921875 4.09375q0 4.078125 -2.28125 6.265625q-2.28125 2.1875 -7.171875 2.1875q-1.96875 0 -3.65625 -0.390625q-0.671875 0.296875 -1.015625 0.921875q-0.328125 0.625 -0.328125 1.390625q0 0.953125 0.625 1.4375q0.625 0.484375 2.0625 0.484375l6.390625 0q4.265625 0 6.0625 1.828125q1.796875 1.8125 1.796875 5.21875zm-5.421875 0.671875q0 -1.296875 -0.859375 -1.96875q-0.859375 -0.671875 -2.875 -0.671875l-7.734375 0q-1.046875 0.921875 -1.046875 2.6875q0 1.546875 1.03125 2.359375q1.03125 0.8125 3.625 0.8125l2.828125 0q2.734375 0 3.875 -0.796875q1.15625 -0.78125 1.15625 -2.421875zm-6.515625 -15.546875q3.984375 0 3.984375 -3.9375l0 -1.109375q0 -3.921875 -3.984375 -3.921875q-3.984375 0 -3.984375 3.921875l0 1.109375q0 3.9375 3.984375 3.9375zm15.069153 12.671875l0 -25.0625l5.796875 0l0 5.140625l0.671875 0q0.4375 -2.5 1.796875 -3.8125q1.375 -1.328125 3.59375 -1.328125l1.234375 0l0 5.953125l-1.90625 0q-2.75 0 -4.078125 0.875q-1.3125 0.859375 -1.3125 3.015625l0 15.21875l-5.796875 0zm33.160583 0q-3.890625 0 -4.078125 -4.265625l-0.578125 0q-0.46875 2.296875 -2.15625 3.578125q-1.6875 1.265625 -4.171875 1.265625q-3.453125 0 -5.1875 -1.921875q-1.734375 -1.921875 -1.734375 -5.375q0 -3.9375 2.453125 -5.859375q2.453125 -1.921875 7.0625 -1.921875l3.875 0l0 -2.15625q0 -2.203125 -0.9375 -3.25q-0.921875 -1.0625 -3.09375 -1.0625q-1.765625 0 -2.96875 0.84375q-1.203125 0.828125 -2.109375 2.359375l-3.40625 -3.0625q1.390625 -2.15625 3.515625 -3.46875q2.140625 -1.328125 5.453125 -1.328125q9.359375 0 9.359375 8.828125l0 12.140625l2.203125 0l0 4.65625l-3.5 0zm-8.78125 -3.703125q1.78125 0 3.015625 -1.03125q1.25 -1.03125 1.25 -2.84375l0 -3.3125l-3.5 0q-4.03125 0 -4.03125 3.109375l0 1.0625q0 1.578125 0.859375 2.296875q0.875 0.71875 2.40625 0.71875zm16.804749 3.703125l0 -25.0625l5.796875 0l0 4.1875l0.671875 0q1.5 -4.75 5.90625 -4.75q4.703125 0 6.09375 4.9375l0.578125 0q0.828125 -2.546875 2.53125 -3.734375q1.703125 -1.203125 4.140625 -1.203125q3.171875 0 4.9375 2.28125q1.78125 2.265625 1.78125 6.5l0 16.84375l-5.796875 0l0 -15.84375q0 -4.890625 -3.515625 -4.890625q-1.671875 0 -2.859375 1.03125q-1.171875 1.03125 -1.171875 2.90625l0 16.796875l-5.796875 0l0 -15.84375q0 -2.59375 -0.875 -3.734375q-0.859375 -1.15625 -2.578125 -1.15625q-1.6875 0 -2.875 1.03125q-1.171875 1.03125 -1.171875 2.90625l0 16.796875l-5.796875 0zm38.496094 0l0 -25.0625l5.796875 0l0 4.1875l0.671875 0q1.5 -4.75 5.90625 -4.75q4.703125 0 6.09375 4.9375l0.578125 0q0.828125 -2.546875 2.53125 -3.734375q1.703125 -1.203125 4.140625 -1.203125q3.171875 0 4.9375 2.28125q1.78125 2.265625 1.78125 6.5l0 16.84375l-5.796875 0l0 -15.84375q0 -4.890625 -3.515625 -4.890625q-1.671875 0 -2.859375 1.03125q-1.171875 1.03125 -1.171875 2.90625l0 16.796875l-5.796875 0l0 -15.84375q0 -2.59375 -0.875 -3.734375q-0.859375 -1.15625 -2.578125 -1.15625q-1.6875 0 -2.875 1.03125q-1.171875 1.03125 -1.171875 2.90625l0 16.796875l-5.796875 0zm41.371094 -28.984375q-1.828125 0 -2.640625 -0.796875q-0.8125 -0.796875 -0.8125 -2.140625l0 -0.953125q0 -1.34375 0.8125 -2.140625q0.8125 -0.796875 2.640625 -0.796875q1.828125 0 2.640625 0.796875q0.8125 0.796875 0.8125 2.140625l0 0.953125q0 1.34375 -0.8125 2.140625q-0.8125 0.796875 -2.640625 0.796875zm-2.875 3.921875l5.796875 0l0 25.0625l-5.796875 0l0 -25.0625zm12.096008 25.0625l0 -25.0625l5.796875 0l0 4.1875l0.671875 0q1.5 -4.75 6.0 -4.75q3.375 0 5.1875 2.28125q1.828125 2.265625 1.828125 6.5l0 16.84375l-5.8125 0l0 -15.84375q0 -4.890625 -3.640625 -4.890625q-1.78125 0 -3.015625 1.03125q-1.21875 1.03125 -1.21875 2.90625l0 16.796875l-5.796875 0zm46.020447 2.203125q0 1.96875 -0.59375 3.453125q-0.59375 1.5 -1.984375 2.5q-1.390625 1.015625 -3.703125 1.515625q-2.296875 0.5 -5.65625 0.5q-2.984375 0 -5.0 -0.40625q-2.015625 -0.40625 -3.265625 -1.171875q-1.25 -0.765625 -1.78125 -1.875q-0.515625 -1.109375 -0.515625 -2.5q0 -1.921875 1.046875 -3.03125q1.0625 -1.09375 3.03125 -1.375l0 -0.921875q-1.53125 -0.375 -2.28125 -1.421875q-0.75 -1.0625 -0.75 -2.609375q0 -1.53125 1.046875 -2.5625q1.0625 -1.03125 3.09375 -1.421875l0 -0.625q-4.09375 -2.015625 -4.09375 -7.390625q0 -4.078125 2.296875 -6.28125q2.3125 -2.203125 7.171875 -2.203125q2.15625 0 3.921875 0.671875l0 -0.921875q0 -3.40625 3.265625 -3.40625l3.515625 0l0 4.515625l-4.859375 0l0 0.953125q1.78125 0.875 2.6875 2.578125q0.921875 1.703125 0.921875 4.09375q0 4.078125 -2.28125 6.265625q-2.28125 2.1875 -7.171875 2.1875q-1.96875 0 -3.65625 -0.390625q-0.671875 0.296875 -1.015625 0.921875q-0.328125 0.625 -0.328125 1.390625q0 0.953125 0.625 1.4375q0.625 0.484375 2.0625 0.484375l6.390625 0q4.265625 0 6.0625 1.828125q1.796875 1.8125 1.796875 5.21875zm-5.421875 0.671875q0 -1.296875 -0.859375 -1.96875q-0.859375 -0.671875 -2.875 -0.671875l-7.734375 0q-1.046875 0.921875 -1.046875 2.6875q0 1.546875 1.03125 2.359375q1.03125 0.8125 3.625 0.8125l2.828125 0q2.734375 0 3.875 -0.796875q1.15625 -0.78125 1.15625 -2.421875zm-6.515625 -15.546875q3.984375 0 3.984375 -3.9375l0 -1.109375q0 -3.921875 -3.984375 -3.921875q-3.984375 0 -3.984375 3.921875l0 1.109375q0 3.9375 3.984375 3.9375zm25.573303 12.671875l0 -33.5l6.0 0l0 28.265625l11.765625 0l0 5.234375l-17.765625 0zm38.832397 0q-3.890625 0 -4.078125 -4.265625l-0.578125 0q-0.46875 2.296875 -2.15625 3.578125q-1.6875 1.265625 -4.171875 1.265625q-3.453125 0 -5.1875 -1.921875q-1.734375 -1.921875 -1.734375 -5.375q0 -3.9375 2.453125 -5.859375q2.453125 -1.921875 7.0625 -1.921875l3.875 0l0 -2.15625q0 -2.203125 -0.9375 -3.25q-0.921875 -1.0625 -3.09375 -1.0625q-1.765625 0 -2.96875 0.84375q-1.203125 0.828125 -2.109375 2.359375l-3.40625 -3.0625q1.390625 -2.15625 3.515625 -3.46875q2.140625 -1.328125 5.453125 -1.328125q9.359375 0 9.359375 8.828125l0 12.140625l2.203125 0l0 4.65625l-3.5 0zm-8.78125 -3.703125q1.78125 0 3.015625 -1.03125q1.25 -1.03125 1.25 -2.84375l0 -3.3125l-3.5 0q-4.03125 0 -4.03125 3.109375l0 1.0625q0 1.578125 0.859375 2.296875q0.875 0.71875 2.40625 0.71875zm16.80481 3.703125l0 -25.0625l5.796875 0l0 4.1875l0.671875 0q1.5 -4.75 6.0 -4.75q3.375 0 5.1875 2.28125q1.828125 2.265625 1.828125 6.5l0 16.84375l-5.8125 0l0 -15.84375q0 -4.890625 -3.640625 -4.890625q-1.78125 0 -3.015625 1.03125q-1.21875 1.03125 -1.21875 2.90625l0 16.796875l-5.796875 0zm46.020447 2.203125q0 1.96875 -0.59375 3.453125q-0.59375 1.5 -1.984375 2.5q-1.390625 1.015625 -3.703125 1.515625q-2.296875 0.5 -5.65625 0.5q-2.984375 0 -5.0 -0.40625q-2.015625 -0.40625 -3.265625 -1.171875q-1.25 -0.765625 -1.78125 -1.875q-0.515625 -1.109375 -0.515625 -2.5q0 -1.921875 1.046875 -3.03125q1.0625 -1.09375 3.03125 -1.375l0 -0.921875q-1.53125 -0.375 -2.28125 -1.421875q-0.75 -1.0625 -0.75 -2.609375q0 -1.53125 1.046875 -2.5625q1.0625 -1.03125 3.09375 -1.421875l0 -0.625q-4.09375 -2.015625 -4.09375 -7.390625q0 -4.078125 2.296875 -6.28125q2.3125 -2.203125 7.171875 -2.203125q2.15625 0 3.921875 0.671875l0 -0.921875q0 -3.40625 3.265625 -3.40625l3.515625 0l0 4.515625l-4.859375 0l0 0.953125q1.78125 0.875 2.6875 2.578125q0.921875 1.703125 0.921875 4.09375q0 4.078125 -2.28125 6.265625q-2.28125 2.1875 -7.171875 2.1875q-1.96875 0 -3.65625 -0.390625q-0.671875 0.296875 -1.015625 0.921875q-0.328125 0.625 -0.328125 1.390625q0 0.953125 0.625 1.4375q0.625 0.484375 2.0625 0.484375l6.390625 0q4.265625 0 6.0625 1.828125q1.796875 1.8125 1.796875 5.21875zm-5.421875 0.671875q0 -1.296875 -0.859375 -1.96875q-0.859375 -0.671875 -2.875 -0.671875l-7.734375 0q-1.046875 0.921875 -1.046875 2.6875q0 1.546875 1.03125 2.359375q1.03125 0.8125 3.625 0.8125l2.828125 0q2.734375 0 3.875 -0.796875q1.15625 -0.78125 1.15625 -2.421875zm-6.515625 -15.546875q3.984375 0 3.984375 -3.9375l0 -1.109375q0 -3.921875 -3.984375 -3.921875q-3.984375 0 -3.984375 3.921875l0 1.109375q0 3.9375 3.984375 3.9375zm28.266663 8.453125l-0.671875 0q-1.4375 4.796875 -6.09375 4.796875q-3.359375 0 -5.171875 -2.28125q-1.796875 -2.28125 -1.796875 -6.546875l0 -16.8125l5.8125 0l0 15.84375q0 4.953125 3.65625 4.953125q1.765625 0 3.015625 -1.0625q1.25 -1.0625 1.25 -2.921875l0 -16.8125l5.8125 0l0 25.0625l-5.8125 0l0 -4.21875zm28.459045 4.21875q-3.890625 0 -4.078125 -4.265625l-0.578125 0q-0.46875 2.296875 -2.15625 3.578125q-1.6875 1.265625 -4.171875 1.265625q-3.453125 0 -5.1875 -1.921875q-1.734375 -1.921875 -1.734375 -5.375q0 -3.9375 2.453125 -5.859375q2.453125 -1.921875 7.0625 -1.921875l3.875 0l0 -2.15625q0 -2.203125 -0.9375 -3.25q-0.921875 -1.0625 -3.09375 -1.0625q-1.765625 0 -2.96875 0.84375q-1.203125 0.828125 -2.109375 2.359375l-3.40625 -3.0625q1.390625 -2.15625 3.515625 -3.46875q2.140625 -1.328125 5.453125 -1.328125q9.359375 0 9.359375 8.828125l0 12.140625l2.203125 0l0 4.65625l-3.5 0zm-8.78125 -3.703125q1.78125 0 3.015625 -1.03125q1.25 -1.03125 1.25 -2.84375l0 -3.3125l-3.5 0q-4.03125 0 -4.03125 3.109375l0 1.0625q0 1.578125 0.859375 2.296875q0.875 0.71875 2.40625 0.71875zm37.289185 5.90625q0 1.96875 -0.59375 3.453125q-0.59375 1.5 -1.984375 2.5q-1.390625 1.015625 -3.703125 1.515625q-2.296875 0.5 -5.65625 0.5q-2.984375 0 -5.0 -0.40625q-2.015625 -0.40625 -3.265625 -1.171875q-1.25 -0.765625 -1.78125 -1.875q-0.515625 -1.109375 -0.515625 -2.5q0 -1.921875 1.046875 -3.03125q1.0625 -1.09375 3.03125 -1.375l0 -0.921875q-1.53125 -0.375 -2.28125 -1.421875q-0.75 -1.0625 -0.75 -2.609375q0 -1.53125 1.046875 -2.5625q1.0625 -1.03125 3.09375 -1.421875l0 -0.625q-4.09375 -2.015625 -4.09375 -7.390625q0 -4.078125 2.296875 -6.28125q2.3125 -2.203125 7.171875 -2.203125q2.15625 0 3.921875 0.671875l0 -0.921875q0 -3.40625 3.265625 -3.40625l3.515625 0l0 4.515625l-4.859375 0l0 0.953125q1.78125 0.875 2.6875 2.578125q0.921875 1.703125 0.921875 4.09375q0 4.078125 -2.28125 6.265625q-2.28125 2.1875 -7.171875 2.1875q-1.96875 0 -3.65625 -0.390625q-0.671875 0.296875 -1.015625 0.921875q-0.328125 0.625 -0.328125 1.390625q0 0.953125 0.625 1.4375q0.625 0.484375 2.0625 0.484375l6.390625 0q4.265625 0 6.0625 1.828125q1.796875 1.8125 1.796875 5.21875zm-5.421875 0.671875q0 -1.296875 -0.859375 -1.96875q-0.859375 -0.671875 -2.875 -0.671875l-7.734375 0q-1.046875 0.921875 -1.046875 2.6875q0 1.546875 1.03125 2.359375q1.03125 0.8125 3.625 0.8125l2.828125 0q2.734375 0 3.875 -0.796875q1.15625 -0.78125 1.15625 -2.421875zm-6.515625 -15.546875q3.984375 0 3.984375 -3.9375l0 -1.109375q0 -3.921875 -3.984375 -3.921875q-3.984375 0 -3.984375 3.921875l0 1.109375q0 3.9375 3.984375 3.9375zm24.282288 13.25q-2.453125 0 -4.5 -0.796875q-2.03125 -0.796875 -3.46875 -2.390625q-1.4375 -1.609375 -2.234375 -4.078125q-0.796875 -2.484375 -0.796875 -5.84375q0 -6.765625 2.71875 -9.921875q2.71875 -3.171875 7.75 -3.171875q5.046875 0 7.75 3.171875q2.71875 3.15625 2.71875 9.921875l0 1.390625l-14.828125 0l0 1.640625q0 2.484375 1.390625 3.9375q1.390625 1.4375 3.828125 1.4375q2.078125 0 3.484375 -0.890625q1.421875 -0.890625 2.421875 -2.5625l3.171875 3.3125q-1.390625 2.203125 -3.75 3.53125q-2.34375 1.3125 -5.65625 1.3125zm-0.53125 -21.75q-4.359375 0 -4.359375 5.1875l0 1.25l8.734375 0l0 -1.25q0 -5.1875 -4.375 -5.1875zm22.896301 21.75q-3.125 0 -5.484375 -1.125q-2.34375 -1.140625 -4.109375 -3.390625l3.546875 -3.453125q1.203125 1.671875 2.6875 2.546875q1.484375 0.859375 3.453125 0.859375q3.65625 0 3.65625 -3.078125q0 -1.1875 -0.609375 -1.875q-0.59375 -0.703125 -2.03125 -0.953125l-2.359375 -0.421875q-3.9375 -0.734375 -5.71875 -2.453125q-1.765625 -1.734375 -1.765625 -5.046875q0 -3.9375 2.296875 -5.875q2.3125 -1.9375 6.53125 -1.9375q2.9375 0 5.0625 0.953125q2.140625 0.953125 3.71875 2.828125l-3.40625 3.40625q-0.953125 -1.1875 -2.328125 -1.90625q-1.359375 -0.734375 -3.046875 -0.734375q-3.359375 0 -3.359375 3.03125q0 1.25 0.671875 1.90625q0.671875 0.640625 2.109375 0.875l2.40625 0.4375q3.9375 0.71875 5.640625 2.421875q1.703125 1.703125 1.703125 4.78125q0 3.875 -2.40625 6.046875q-2.390625 2.15625 -6.859375 2.15625z" fill-rule="nonzero"/><path fill="#ffffff" d="m1010.2369 283.434l-8.0625 8.015625l-8.015625 -8.015625l8.015625 -8.078125l8.0625 8.078125z" fill-rule="nonzero"/><path fill="#ffffff" d="m1036.3961 297.63712q-3.015625 0 -5.453125 -0.984375q-2.421875 -0.984375 -4.125 -3.0625q-1.703125 -2.09375 -2.640625 -5.375q-0.93756104 -3.296875 -0.93756104 -7.90625q0 -4.609375 0.93756104 -7.890625q0.9375 -3.296875 2.640625 -5.375q1.703125 -2.09375 4.125 -3.078125q2.4375 -0.984375 5.453125 -0.984375q3.03125 0 5.453125 0.984375q2.421875 0.984375 4.125 3.078125q1.703125 2.078125 2.640625 5.375q0.9375 3.28125 0.9375 7.890625q0 4.609375 -0.9375 7.90625q-0.9375 3.28125 -2.640625 5.375q-1.703125 2.078125 -4.125 3.0625q-2.421875 0.984375 -5.453125 0.984375zm0 -5.28125q3.265625 0 5.03125 -2.03125q1.78125 -2.046875 1.78125 -5.84375l0 -8.34375q0 -3.796875 -1.78125 -5.828125q-1.765625 -2.046875 -5.03125 -2.046875q-3.265625 0 -5.046875 2.046875q-1.765625 2.03125 -1.765625 5.828125l0 8.34375q0 3.796875 1.765625 5.84375q1.78125 2.03125 5.046875 2.03125zm18.581665 -20.359375l5.796875 0l0 4.140625l0.671875 0q0.53125 -2.125 2.140625 -3.40625q1.609375 -1.296875 3.765625 -1.296875q4.421875 0 6.53125 3.34375q2.109375 3.328125 2.109375 9.75q0 6.4375 -2.109375 9.78125q-2.109375 3.328125 -6.53125 3.328125q-2.15625 0 -3.765625 -1.296875q-1.609375 -1.296875 -2.140625 -3.40625l-0.671875 0l0 13.71875l-5.796875 0l0 -34.65625zm10.171875 20.84375q2.25 0 3.5 -1.390625q1.25 -1.40625 1.25 -3.9375l0 -5.953125q0 -2.546875 -1.25 -3.9375q-1.25 -1.390625 -3.5 -1.390625q-1.96875 0 -3.171875 0.984375q-1.203125 0.984375 -1.203125 2.75l0 9.125q0 1.78125 1.203125 2.765625q1.203125 0.984375 3.171875 0.984375zm22.79834 4.21875q-3.015625 0 -4.359375 -1.34375q-1.34375 -1.34375 -1.34375 -4.265625l0 -14.796875l-3.3125 0l0 -4.65625l1.71875 0q1.25 0 1.703125 -0.5625q0.453125 -0.578125 0.453125 -1.828125l0 -4.421875l5.234375 0l0 6.8125l4.515625 0l0 4.65625l-4.515625 0l0 15.75l4.125 0l0 4.65625l-4.21875 0zm12.0008545 -28.984375q-1.828125 0 -2.640625 -0.796875q-0.8125 -0.796875 -0.8125 -2.140625l0 -0.953125q0 -1.34375 0.8125 -2.140625q0.8125 -0.796875 2.640625 -0.796875q1.828125 0 2.640625 0.796875q0.8125 0.796875 0.8125 2.140625l0 0.953125q0 1.34375 -0.8125 2.140625q-0.8125 0.796875 -2.640625 0.796875zm-2.875 3.921875l5.796875 0l0 25.0625l-5.796875 0l0 -25.0625zm12.095947 25.0625l0 -25.0625l5.796875 0l0 4.1875l0.671875 0q1.5 -4.75 5.90625 -4.75q4.703125 0 6.09375 4.9375l0.578125 0q0.828125 -2.546875 2.53125 -3.734375q1.703125 -1.203125 4.140625 -1.203125q3.171875 0 4.9375 2.28125q1.78125 2.265625 1.78125 6.5l0 16.84375l-5.796875 0l0 -15.84375q0 -4.890625 -3.515625 -4.890625q-1.671875 0 -2.859375 1.03125q-1.171875 1.03125 -1.171875 2.90625l0 16.796875l-5.796875 0l0 -15.84375q0 -2.59375 -0.875 -3.734375q-0.859375 -1.15625 -2.578125 -1.15625q-1.6875 0 -2.875 1.03125q-1.171875 1.03125 -1.171875 2.90625l0 16.796875l-5.796875 0zm41.371094 -28.984375q-1.828125 0 -2.640625 -0.796875q-0.8125 -0.796875 -0.8125 -2.140625l0 -0.953125q0 -1.34375 0.8125 -2.140625q0.8125 -0.796875 2.640625 -0.796875q1.828125 0 2.640625 0.796875q0.8125 0.796875 0.8125 2.140625l0 0.953125q0 1.34375 -0.8125 2.140625q-0.8125 0.796875 -2.640625 0.796875zm-2.875 3.921875l5.796875 0l0 25.0625l-5.796875 0l0 -25.0625zm10.549194 25.0625l0 -4.5625l11.578125 -15.84375l-11.1875 0l0 -4.65625l17.765625 0l0 4.515625l-11.625 15.890625l11.90625 0l0 4.65625l-18.4375 0zm39.55542 0q-3.890625 0 -4.078125 -4.265625l-0.578125 0q-0.46875 2.296875 -2.15625 3.578125q-1.6875 1.265625 -4.171875 1.265625q-3.453125 0 -5.1875 -1.921875q-1.734375 -1.921875 -1.734375 -5.375q0 -3.9375 2.453125 -5.859375q2.453125 -1.921875 7.0625 -1.921875l3.875 0l0 -2.15625q0 -2.203125 -0.9375 -3.25q-0.921875 -1.0625 -3.09375 -1.0625q-1.765625 0 -2.96875 0.84375q-1.203125 0.828125 -2.109375 2.359375l-3.40625 -3.0625q1.390625 -2.15625 3.515625 -3.46875q2.140625 -1.328125 5.453125 -1.328125q9.359375 0 9.359375 8.828125l0 12.140625l2.203125 0l0 4.65625l-3.5 0zm-8.78125 -3.703125q1.78125 0 3.015625 -1.03125q1.25 -1.03125 1.25 -2.84375l0 -3.3125l-3.5 0q-4.03125 0 -4.03125 3.109375l0 1.0625q0 1.578125 0.859375 2.296875q0.875 0.71875 2.40625 0.71875zm23.759033 3.703125q-3.015625 0 -4.359375 -1.34375q-1.34375 -1.34375 -1.34375 -4.265625l0 -14.796875l-3.3125 0l0 -4.65625l1.71875 0q1.25 0 1.703125 -0.5625q0.453125 -0.578125 0.453125 -1.828125l0 -4.421875l5.234375 0l0 6.8125l4.515625 0l0 4.65625l-4.515625 0l0 15.75l4.125 0l0 4.65625l-4.21875 0zm12.000732 -28.984375q-1.828125 0 -2.640625 -0.796875q-0.8125 -0.796875 -0.8125 -2.140625l0 -0.953125q0 -1.34375 0.8125 -2.140625q0.8125 -0.796875 2.640625 -0.796875q1.828125 0 2.640625 0.796875q0.8125 0.796875 0.8125 2.140625l0 0.953125q0 1.34375 -0.8125 2.140625q-0.8125 0.796875 -2.640625 0.796875zm-2.875 3.921875l5.796875 0l0 25.0625l-5.796875 0l0 -25.0625zm21.06482 25.640625q-4.984375 0 -7.75 -3.171875q-2.765625 -3.171875 -2.765625 -9.9375q0 -6.765625 2.765625 -9.921875q2.765625 -3.171875 7.75 -3.171875q5.0 0 7.75 3.171875q2.765625 3.15625 2.765625 9.921875q0 6.765625 -2.765625 9.9375q-2.75 3.171875 -7.75 3.171875zm0 -4.703125q4.421875 0 4.421875 -5.1875l0 -6.4375q0 -5.171875 -4.421875 -5.171875q-4.40625 0 -4.40625 5.171875l0 6.4375q0 5.1875 4.40625 5.1875zm15.319336 4.125l0 -25.0625l5.796875 0l0 4.1875l0.671875 0q1.5 -4.75 6.0 -4.75q3.375 0 5.1875 2.28125q1.828125 2.265625 1.828125 6.5l0 16.84375l-5.8125 0l0 -15.84375q0 -4.890625 -3.640625 -4.890625q-1.78125 0 -3.015625 1.03125q-1.21875 1.03125 -1.21875 2.90625l0 16.796875l-5.796875 0z" fill-rule="nonzero"/></g></svg>